<?xml version="1.0" encoding="UTF-8"?>
<svg enable-background="new" viewBox="0 0 152.17387 109.54737" xmlns="http://www.w3.org/2000/svg">
 <defs>
  <linearGradient id="a" x1="382.03" x2="396.63" y1="809.32" y2="751.74" gradientUnits="userSpaceOnUse">
   <stop stop-color="#cb7e27" offset="0"/>
   <stop stop-color="#aa7022" stop-opacity="0" offset="1"/>
  </linearGradient>
 </defs>
 <g transform="matrix(-.20517 0 0 .16038 171.63 -26.146)">
  <path d="m191.3 429.77c-4.0488 0.84827-3.2649 9.2918-8.1464 7.7992-6.7869-1.9034-14.245 0.81701-20.486 3.4989-6.3738 3.117-10.866 8.5697-14.343 14.503-5.4039 4.5964-12.868-0.11784-18.678-1.4593-6.7574-2.4123-15.723-5.3666-21.359 0.95181-4.6621 4.7815-9.839 9.5511-13.462 15.011 3.1053 10.223 5.2061 21.844 1.1218 31.998-0.66884 6.348 1.7964 12.68 2.1084 19.06 0.58001 8.3546 5.588 15.503 12.395 20.069 6.0458 5.9019 10.142 16.499 19.845 16.8 3.1094 0.76241 4.7708-1.9062 4.3269-4.7009 2.9988-11.834 15.189-19.264 26.843-19.792 12.431 1.8786 17.217 18.431 30.155 19.204 14.127-0.71759 25.7-12.894 40.304-10.283 11.113 0.89606 25.001 6.5519 26.976 18.91 1.0673 4.2296-1.2057 7.7878-4.5673 10.123-2.3186 1.2458-2.6192 4.9635 0.66774 4.5406 5.7794 1.2823 12.745-0.63706 17.788 2.8045 1.6885 2.9128-0.61623 9.0458 4.3002 9.4284 6.6535 0.94867 14.155 0.37676 18.91 6.0096 6.6637 5.2044 7.937 15.53 11.643 22.369 5.8113-0.92977 11.668-0.41371 15.938 3.7636 4.5337 3.2589 10.879 9.7482 16.569 5.0637 4.8311-3.1163-0.35843-9.4087-0.2542-13.942-1.7549-6.0204-3.354-13.695 2.204-18.216 2.6562-3.4273 9.6934-6.9334 7.0513-12.099-5.4505-6.5481-15.564-6.1213-23.184-4.4872-6.3114 1.8065-15.232 3.0862-20.139-2.3237-2.4626-7.4178 5.2619-13.977 2.4573-21.554-2.936-8.9677-12.775-14.95-13.622-24.653 1.0076-9.2941 11.508-12.809 18.514-16.779 8.4857-4.2354 16.365-13.24 14.9-23.232-1.584-6.0498-7.6407-9.7617-13.488-10.39-9.6253-5.1815-11.485-18.76-21.635-23.184-7.9199-1.6646-16.466-0.6031-23.579-5.1675-5.2944-2.3645-10.412-6.5025-16.417-3.7622-11.756 2.2-23.595 3.9149-35.458 5.4308-8.1012-7.0741-14.696-16.518-24.546-21.234-0.54103-0.12251-1.1053-0.13682-1.656-0.0801z" fill="#dd993f"/>
  <path d="m325.64 621.59c4.7261 3.4235 6.2983 2.5893 8.9744 1.282 4.5683-8.1066-4.2982-15.107-2.7165-23.652 2.7107-7.1089 16.033-14.061 7.2562-21.841-5.4657-3.1781-9.745-1.1412-19.251-0.0381-8.7927 1.6645-19.572 2.7254-26.318 10.682-4.9206 7.6936 9.0056 9.1292 8.9211 17.76 4e-3 16.334 8.9538 11.934 16.418 11.652 2.4426 1.005 2.7616 2.8899 6.7167 4.1546z" fill="#efb665"/>
  <path d="m145.38 536.21c-5.4057-4.2159-16.88-5.266-18.105-11.663-6.4606-19.705-2.1773-42.451 23.882-38.956 17.82-3.7396 37.388-14.676 43.798-31.962 1.5706-8.1279-0.81021-25.485 7.0059-9.5721 8.4921 10.102 14.123 33.318 22.709 36.152 8.3877-18.364 28.149-24.404 45.203-13.654 17.192 3.8005 44.81 13.047 23.01 31.213-10.265 14.895-14.016 34.729-0.55791 49.037 6.7761 12.445-5.9852 23.013-10.577 33.839-4.6008 4.2984-24.011 5.8739-30.213 7.8727-12.079-11.815-13.545-27.761-30.746-31.408-11.373-8.183-21.929 3.4272-34.271 1.9564-15.602-2.1112-26.801-16.677-41.136-22.856z" fill="#d6852a"/>
  <path d="m159.3 533.24c-11.58 1.4245-27.886 10.988-28.615 23.556 1.4305 3.7345 9.4597-2.3668 11.815-2.7756 2.7118-1.4814 7.1538-4.1135 8.8942 0.13354 5.5725 8.705 5.6162 19.882 12.313 28.045 17.092 24.89 32.355 50.808 47.142 77.11 12.855 23.21 34.851 39.452 54.732 56.379 11.997 9.34 22.83 20.474 29.403 34.38 5.5345 9.5873 13.042 21.149 25.321 21.421 7.6784-0.96909 10.82-9.5831 9.0812-16.373-3.4398-16.688-18.157-27.373-25.534-42.067-9.4501-16.097-22.282-31.028-25.988-49.76-1.7385-14.242 1.9726-28.88 2.1368-42.788 12.586 3.083 23.812 11.822 37.099 11.592 5.2015-0.9799 17.844-2.8683 22.22-5.9156 0.0639-3.0703-11.348-2.0897-13.005-4.3675-4.7532-3.7212-11.39-9.0127-17.682-5.9028-1.5027 2.3487-2.1476-3.1557-2.818-3.7744-2.8352-10.266-8.7469-21.939-20.499-23.362-3.8886-0.63461-11.164 0.97079-11.485-4.8077 0.35004-3.2832-0.73309-7.5818-4.9344-7.026-5.4617-1.3244-10.986 0.60851-15.838-2.3255 2.6552-3.6698 7.6561-6.6714 6.4024-12.417-0.9485-11.705-13.548-17.82-23.825-19.578-9.0871-1.9901-18.357-0.0432-26.416 4.3803-7.4746 2.6726-17.088 8.6951-24.519 3.1784-8.3687-5.3333-14.246-17.453-25.401-16.934z" fill="#cb7e27"/>
  <path d="m141.67 548.52c4.4629-2.847 8.1362-7.6314 13.138-9.1559 10.946-2.0037 16.817 8.1641 23.447 14.504 10.464 7.2939 23.648 2.661 34.949 0.40986 11.134-4.2935 25.425-11.164 34.419 1.0304 10.359 6.7962-7.3951 25.409 7.2955 26.655 13.274-1.945 14.383 15.09 27.392 13.358 9.9418 9.8575 20.799 22.296 35.047 28.733 8.7069 2.96-13.975 3.0928-18.201-1.2505-11.927-6.4122-25.353-14.179-39.358-9.5323-10.504-0.0945-21.965 10.839-30.678 3.1615-9.8298-9.8809-20.581 8.3575-11.415 16.36 2.1757 11.842 17.546 30.783 9.383 38.919-7.7111-15.426-18.243-29.223-27.966-43.356-4.354-11.107-9.4304-22.008-17.888-30.674-9.052-8.7543-14.05-20.105-18.009-31.832-3.6301-6.9467-6.464-18.779-16.353-17.056l-5.2028-0.27383z" fill="#b77123"/>
  <path d="m140 550.82c5.4304-1.6652 10.921-1.8665 15.805 1.7067 8.8072 4.9793 10.493 16.404 14.927 24.747 6.6394 16.16 18.519 29.24 26.436 44.709 8.2031 13.777 14.62 28.952 25.14 41.145 7.7168 7.6594 11.687 18.347 19.231 26.154 13.57 8.5181 25.828 18.819 37.587 29.65 6.3579 4.4458 8.9339 12.027 13.152 18.248 5.0216 8.392 10.169 16.864 15.886 24.724l8.7606 5.8404" fill="none" stroke="#a6602a"/>
  <path d="m327.69 625.44c-6.869 4.5445-11.885 3.342-16.704 2.5119-5.879-1.411-9.7242-4.1779-15.603-5.5888-5.7035-3.2284-11.468-6.9473-18.036-8.0243-5.3786 1.0503-6.1286 5.5299-6.2402 10.922 0.69403 5.593 1.0715 13.345 0.76527 19.062 1.153 10.821-0.49992 21.591 3.6677 31.886 3.2471 5.2406 3.4958 11.261 6.8368 16.392 3.7172 4.7034 7.9563 9.0507 11.331 13.988 3.0111 5.1325 5.4624 10.636 8.8452 15.522 6.7098 8.5357 13.627 16.962 19.612 26.019 1.2583 2.6807 3.2193 5.1531 4.0378 7.9641l0.71895 9.3464" fill="none" stroke="#ab6528"/>
  <path d="m321.08 621.46c-3.773 0.32196-9.3685 2.1312-13.19 2.0626-0.57879-0.016-1.1574-0.0613-1.7346-0.14352-5.3495-1.1389-10.873-2.1213-16.356-3.1557-0.75744-0.39103-1.515-0.79296-2.274-1.1979-4.5747-2.4053-9.2256-4.8648-14.43-5.4759-4.9651 1.2744-8.7355 7.44-8.6757 12.87 0.31353 2.1261 0.81279 4.2247 1.3018 6.3252 0.81428 3.4449 1.6065 6.8928 1.5196 10.466 1.1486 8.9402 0.48819 18.287 2.6721 27.03 0.48408 1.9055 1.0905 3.7927 1.871 5.6485 3.3093 5.2919 5.3247 11.368 8.7542 16.531l0.56082 0.69602c3.6979 4.4182 7.7758 8.5854 11.098 13.274 3.144 5.1154 5.7436 10.598 9.2278 15.496 0.47676 0.59501 0.95438 1.1896 1.4325 1.784 3.7593 4.5997 7.3871 9.322 10.951 14.079 2.5618 3.4419 5.0543 6.9347 7.4162 10.515 1.2946 2.7056 3.2634 5.2101 4.1439 8.0342l0.12689 1.189 0.98779 8.0571" fill="none" stroke="#aa6428"/>
  <path d="m310.28 619.34c-3.1495 0.18733-9.4647-0.80558-12.697-0.62743-0.48991 0.0132-0.98294 2e-3 -1.4777-0.0408-4.5751-0.74101-9.5797-1.0967-14.482-1.5806-0.67287-0.28801-1.3442-0.58821-2.0139-0.89451-4.0752-1.781-8.1585-3.6496-12.741-3.8043-4.3603 1.6021-7.5906 7.7548-7.2802 13.24 0.38807 2.1412 0.94504 4.2593 1.4857 6.3832 0.91477 3.473 1.7995 6.9561 1.8639 10.557 1.4446 9.0279 1.198 18.441 3.7469 27.186 0.57369 1.8979 1.2475 3.79 2.076 5.6589 3.4002 5.3669 5.5207 11.524 9.0795 16.733 0.19029 0.23606 0.38214 0.471 0.57543 0.7049 3.8699 4.3841 8.0753 8.5597 11.563 13.238 3.3385 5.0904 6.1548 10.542 9.7872 15.458l1.4807 1.7962c3.9353 4.5892 7.4919 9.5053 11.1 14.362 2.5771 3.5244 5.0923 7.0979 7.4934 10.747 1.3477 2.742 3.3278 5.2934 4.299 8.1367 0.0595 0.39773 0.11915 0.7953 0.17898 1.1927l1.5144 7.907" fill="none" stroke="#aa6428"/>
  <path d="m301.5 610.64c-2.4209 0.03-13.416 1.9824-15.959 2.4489-0.38603 0.0473-0.77912 0.0761-1.1775 0.0792-3.6701-0.27603-8.0678 0.10074-12.292 0.26019-0.57402-0.16763-1.1447-0.34894-1.71-0.53999-3.4915-1.0514-6.9114-2.2295-10.768-1.8509-3.6536 1.9851-6.2527 8.1226-5.6494 13.672 0.47518 2.1588 1.0996 4.2997 1.7007 6.451 1.0322 3.5057 2.025 7.0301 2.2663 10.663 1.7906 9.1304 2.0274 18.621 5.0031 27.369 0.67841 1.889 1.431 3.7868 2.3157 5.6711 3.5065 5.4546 5.7498 11.707 9.4597 16.97 0.19576 0.2397 0.39328 0.4781 0.5925 0.71525 4.0709 4.3443 8.4253 8.5297 12.106 13.197 3.5658 5.0611 6.6353 10.476 10.441 15.413l1.5371 1.8104c4.1411 4.5771 7.6143 9.7195 11.275 14.692 2.595 3.6208 5.1367 7.2886 7.5838 11.017 1.4098 2.7845 3.403 5.3907 4.4802 8.2564l0.23985 1.197 2.1298 7.7314" fill="none" stroke="#aa6428"/>
  <path d="m289.85 598.63c-13.818-2.178-15.854 7.4542-17.634 8.2398-0.27105 0.085-0.5535 0.15803-0.84519 0.21199-2.6683 0.23868-6.3942 1.4262-9.8674 2.2979-0.46461-0.0344-0.92372-0.0841-1.3736-0.14753-2.8454-0.24381-5.5309-0.65745-8.5832 0.31153-2.8713 2.409-4.7716 8.5298-3.8441 14.151 0.57161 2.1782 1.2707 4.3444 1.9386 6.526 1.1622 3.542 2.2747 7.112 2.7117 10.781 2.1735 9.2439 2.9456 18.82 6.3936 27.571 0.79432 1.8792 1.6341 3.7833 2.581 5.6846 3.6242 5.5516 6.0033 11.909 9.8805 17.233 0.20181 0.24374 0.40562 0.48598 0.61139 0.72673 4.2934 4.3002 8.8127 8.4965 12.707 13.151 3.8173 5.0288 7.1672 10.404 11.165 15.364l1.5995 1.8262c4.3688 4.5636 7.7499 9.9566 11.467 15.057 2.6149 3.7275 5.1858 7.4998 7.6837 11.317 1.4784 2.8316 3.4862 5.4984 4.6808 8.389l0.30723 1.2017 2.811 7.5372" fill="none" stroke="#a96328"/>
  <path d="m260.35 587.48c-0.74426-0.33201-5.9609 1.0387-5.2229 3.8635-0.14702 0.1257-4.3779 4.3142-4.5545 4.4231-1.5878 0.79386-0.52127 2.1779-3.1848 3.8178-0.3466 0.10938-7e-3 2.9135-0.33283 2.9876-2.1485 0.62729-2.008 3.75-4.193 5.3558-2.0274 2.8663-3.1741 8.9691-1.8969 14.667 0.67562 2.1993 1.4552 4.3926 2.1953 6.6069 1.3024 3.5811 2.544 7.2003 3.1922 10.908 2.5865 9.3662 3.9359 19.035 7.8934 27.789 0.91936 1.8686 1.8532 3.7795 2.8672 5.6991 3.7511 5.6562 6.2768 12.128 10.334 17.516 0.20834 0.24809 0.41893 0.49447 0.63178 0.73911 4.5334 4.2526 9.2305 8.4607 13.355 13.102 4.0886 4.9939 7.7409 10.325 11.945 15.311l1.6668 1.8431c4.6145 4.549 7.8961 10.212 11.675 15.451 2.6363 3.8426 5.2389 7.7275 7.7915 11.64 1.5525 2.8824 3.5761 5.6146 4.8972 8.5319 0.12608 0.40283 0.25271 0.80509 0.3799 1.2067l3.5458 7.3276" fill="none" stroke="#a96328"/>
  <path d="m238.61 551.51c13.739 13.706 4.0418 40.027 3.9591 41.523-0.0153 0.16894-0.0516 0.34031-0.10598 0.50746-0.43998 1.3836-2.6716 4.3745-4.4752 6.8304-0.22123 0.26207-0.43228 0.5051-0.62537 0.72542-1.4082 1.5526-2.4603 2.8393-3.7241 5.1214-1.1311 3.352-1.4772 9.4356 0.17139 15.215 0.7861 2.2216 1.6512 4.4438 2.468 6.6928 1.4514 3.6227 2.83 7.2942 3.7025 11.043 3.0252 9.4962 4.9879 19.263 9.4865 28.02 1.0522 1.8573 2.0859 3.7755 3.1711 5.7145 3.886 5.7674 6.5673 12.359 10.817 17.817l0.65342 0.75225c4.7883 4.202 9.6744 8.4226 14.044 13.05 4.3769 4.9568 8.3503 10.242 12.774 15.254l1.7382 1.8612c4.8754 4.5336 8.0514 10.484 11.896 15.87 2.659 3.9649 5.2952 7.9694 7.9061 11.984 1.6312 2.9364 3.6715 5.738 5.1271 8.6838l0.4571 1.2122 4.3262 7.105" fill="none" stroke="#a86228"/>
  <path d="m212.55 552.11c16.067 2.3095 13.124 31.541 13.96 33.421 0.12324 0.21439-0.1188 4.5068-0.0446 4.7353 0.76686 2.0036-0.31648 1.9035-1.2157 5.2174-0.0894 0.42262-0.16613 0.82419-0.22012 1.1982-0.62982 2.5255-0.79721 4.7332-1.0924 7.7265-0.18863 3.8628 0.30701 9.9262 2.3462 15.792 0.90228 2.245 1.8574 4.4977 2.7546 6.7832 1.608 3.6664 3.1308 7.3928 4.2391 11.185 3.4865 9.6329 6.094 19.502 11.162 28.264 1.1918 1.8455 2.3306 3.7713 3.4907 5.7307 4.0277 5.8842 6.8728 12.603 11.324 18.133 0.22256 0.25757 0.44792 0.51296 0.67618 0.76607 5.0564 4.1489 10.141 8.3826 14.768 12.995 4.6799 4.9178 8.9911 10.155 13.646 15.195l1.8134 1.8801c5.1498 4.5173 8.2148 10.77 12.129 16.31 2.6829 4.0934 5.3544 8.2238 8.0265 12.345 1.7139 2.9932 3.7718 5.8678 5.3688 8.8435 0.17858 0.40685 0.35799 0.81281 0.53828 1.2178l5.1469 6.871" fill="none" stroke="#a86229"/>
  <path d="m196.51 556.8c10.383-1.9184 12.09 9.9435 12.017 18.185 1.9997 7.2608 3.9261 16.357 4.7528 24.84 1.9044 15.633 10.438 29.115 15.542 43.743 3.9466 11.708 10.209 22.327 17.155 32.467 4.1106 7.2408 8.2185 14.842 15.561 19.293 11.265 8.8252 20.532 19.846 30.482 30.025 8.1969 11.916 15.497 24.539 23.612 36.446l4.684 5.1702" fill="none" stroke="#a76129"/>
  <path d="m176.32 551.69c14.406 4.236 13.233 15.202 16.026 17.901 0.418 0.31111 0.79856 0.6491 1.1462 1.008 3.3348 3.323 3.6346 9.369 4.6595 14.509 0.19105 0.76422 0.40022 1.5032 0.64218 2.2042 1.0264 4.5957 2.7415 8.7629 4.5074 13.27 1.8168 4.9495 4.1035 10.97 6.9738 17.018 1.1495 2.295 2.2959 4.6123 3.3646 6.9755 1.9412 3.7594 3.7707 7.6028 5.3808 11.486 4.4681 9.9237 8.4477 20.013 14.726 28.782 1.489 1.8202 2.8513 3.7623 4.1708 5.7652 4.3293 6.1329 7.5227 13.122 12.403 18.805 0.23808 0.26792 0.47955 0.53314 0.72462 0.79548 5.6267 4.0358 11.134 8.2974 16.309 12.878 5.3248 4.8348 10.355 9.9689 15.501 15.068l1.9733 1.9205c5.7335 4.4827 8.5623 11.377 12.623 17.246 2.7338 4.367 5.4804 8.765 8.2828 13.113 1.8899 3.1139 3.9853 6.1439 5.883 9.1832l0.711 1.2299 6.8931 6.373" fill="none" stroke="#a76129"/>
  <path d="m150.35 544.26c17.529-3.1178 20.179 13.792 24.002 16.922 0.57324 0.36204 1.1032 0.75973 1.5949 1.1873 4.6874 4.0179 5.8941 11.159 7.9325 17.26 0.33877 0.94414 0.6985 1.8608 1.0964 2.7341 1.8988 5.6861 4.6053 10.885 7.4567 16.189 2.873 5.5219 6.1031 11.52 9.4111 17.664 1.2796 2.3213 2.5269 4.6727 3.6859 7.0768 2.1168 3.8084 4.1078 7.7134 5.9822 11.645 4.9851 10.077 9.6873 20.281 16.603 29.055 1.6455 1.807 3.1255 3.7575 4.529 5.7834 4.4882 6.2639 7.865 13.395 12.971 19.16l0.75013 0.81097c5.9271 3.9762 11.657 8.2526 17.121 12.816 5.6644 4.7912 11.073 9.871 16.478 15.002 0.68746 0.64542 1.3732 1.2927 2.0575 1.9417 6.041 4.4645 8.7453 11.697 12.883 17.739 2.7606 4.5111 5.5468 9.0501 8.4177 13.517 1.9826 3.1775 4.0978 6.2893 6.1539 9.3622 0.26598 0.41353 0.53329 0.82565 0.80198 1.2363l7.8128 6.1107" fill="none" stroke="#a66029"/>
 </g>
 <g transform="matrix(-.1217 -.00828 -.00678 .09704 80.296 -35.285)">
  <path d="m456.13 563.22c6.4815-2.7778 21.647-10.862 29.054-9.9358s12.396 1.9074 14.248 6.5371-1.2848 16.611-1.2848 16.611l7.3972 7.1682" fill="#dd8b14"/>
  <path d="m367.98 486.95c-6.5309 0.34211-13.047 2.4014-19.003 4.5898-7.1397 3.4545-3.719 12.525-4.31 18.639-6.5999-3.457-10.976-12.941-19.451-11.419-9.928 3.6616-19.572 8.9821-30.422 9.7673-12.5 5.2104-22.837 15.984-28.071 28.434-1.9454 3.8975-0.31096 9.5074 4.7577 9.3755 5.0614 1.3978 11 1.12 15.645 3.1065 2.0239 6.086-5.7382 8.8496-10.325 9.7446-3.0256 0.93782-10.396 1.1974-8.2579 6.1798 4.5417 7.7625 8.1346 17.734 13.797 24.782 7.055-1.4766 13.78-6.3872 21.298-5.2474 5.7591 1.1324 10.815-0.39479 14.899-4.6234 6.922-4.5893 14.413-14.116 23.611-9.5379 11.172 5.7582 24.133 0.74186 35.685-1.3611 12.962-2.4553 25.212-8.4973 38.284-9.7216 4.4658 0.18021 4.729 6.779 9.3755 7.3885 9.5323 3.0237 15.564-10.668 24.908-6.8008 3.5946 1.5297 5.7279 5.28 10.789 0.93654 9.0281-3.4652 20.058-9.8187 29.893-5.8675 10.562 2.0608 8.6361 12.559 8.6361 12.559s8.3234-28.346-2.0207-32.816c-7.9898-4.2349-14.174-10.959-19.115-18.471-5.6185-7.9207-15.701-9.6629-24.796-9.2356-6.9378 1.0593-10.604-5.5301-15.169-9.4595-8.8322-10.709-24.1-11.333-36.746-8.9557-11.316 1.6745-22.473-2.7881-33.892-1.987z" fill="#dd993f"/>
  <path d="m591.84 572.26c-9.1856 4.076-20.261 11.407-28.287 17.565-3.202 2.3408 2.4604 5.8051-0.17513 8.6025-4.4089 7.6587-14.356 13.669-13.294 23.453 2.3067 5.4784 9.9884 3.3843 14.609 3.5543 18.251-2.9588 31.731 14.488 49.66 14.226 2.367 0.65938 11.031 8.5566 9.308 4.2372-2.9927-10.351-12.81-25.372-18.163-34.444 1.3056-8.95 3.9725-18.016 4.4219-26.895-5.1709-4.3899-10.871-10.025-18.079-10.299z" fill="#f3c080"/>
  <path d="m477.22 591.05s16.39-3.267 8.78-6.0504c2.5458 2.3966-0.75068 1.9939 2.2286 1.893 5.2432-1.9762 11.111-1.9602 16.41-3.3433-2.7866-3.9438-9.9919-4.539-14.502-7.1579-7.5825-2.9413-25.92-11.129-33.663-13.504l-0.94106 2.5984 12.016 8.8451z" fill="#dd8b14"/>
  <path d="m400.1 521.89c-13.757 0.81354-25.221 12.089-39.393 10.027-11.271-0.68136-22.201-3.7123-33.147-6.2665-7.5774 0.57909-9.2922 9.3945-12.67 14.761-3.6584 7.4189-6.8387 15.077-10.882 22.303-2.0231 10.048 3.0854 19.517 4.5075 29.264 4.6225 8.2532 12.622-0.77781 17.39-3.5203 4.0656-4.3183 6.9708-11.853 14.339-8.4528 6.4598 1.114 13.349 1.7423 19.494-0.97718 7.9271-1.123 17.071 1.6724 23.864-3.8285 8.4719-1.4557 17.212-2.9186 24.724-7.3529 5.5084 5.7438 14.012 2.5496 20.902 4.0759 5.1765-3.3976 13.486 0.46104 16.84-4.5776 1.1501-6.2688-3.6152-11.675-5.6884-17.318-6.5519-13.132-17.897-25.514-33.118-27.617-2.3665-0.37408-4.7646-0.56131-7.1609-0.51984zm9.6048 42.096c-0.7535 0.0528-1.3533 0.0947 0 0zm-0.13787 0.0919c-2.567 1.8912 0.34984 3.832 0 0zm-0.82721 0c-0.80059 0.32935 0.718 0.45012 0 0zm0.91912 0.046v0.33999-0.33999zl-0.046-0.046 0.046 0.046z" fill="#d6852a"/>
  <path d="m415.24 559.39c-16.148 2.3145-31.151 9.3234-47.33 11.849-8.8192 1.5544-18.972 3.7822-26.919-1.4572-9.8133-3.2665-16.95 7.0247-24.323 11.562-5.3273 4.5898-12.376 3.3619-18.918 3.2597-10.892 1.775-22.06 6.8092-28.697 15.909-3.3328 6.8629 3.9788 13.266 9.1662 16.744 9.6872 6.2227 21.802 7.987 31.204 14.237 12.672 33.387 25.204 67.001 38.253 100.3-6.3734 20.305-14.077 40.283-16.487 61.559-3.411 21.552-0.51461 43.543 0.47791 65.205 1.0234 4.3763-0.52691 10.022 1.9392 13.738 12.13 0.5112 24.66 2.9296 36.637 0.19503 8.8621-3.4181 16.022-10.234 23.403-15.909 6.6243-34.638 19.318-67.693 33.42-99.875 3.6939-10.293 13.826-15.557 21.385-22.686 28.325-23.516 58.682-44.629 88.037-66.809 12.2-6.7822 25.264-12.66 38.894-15.351 13.965-1.623 28.516 2.731 42.126-1.5323 3.8593-0.46026 8.9905-5.8738 4.3742-8.8598-7.0403-3.8317-15.818-1.289-22.739-5.6892-11.637-5.4329-23.376-13.159-36.853-10.824-4.0596 0.13351-12.18 1.341-12.178-4.7172 0.47794-10.198 11.828-15.151 14.738-24.267 0.45906-7.22-2.5004-14.709-6.8538-20.311-3.8843-0.84964-5.062 7.2141-5.5542 9.535-0.49016 12.898 8.7823 13.822-24.842 13.367-14.707-5.3648-29.237 3.2793-41.596 10.336-14.438 6.8758-26.766 18.035-42.488 21.954-9.5975 2.5028-20.248-7.883-16.271-17.497 4.2175-11.378 17.763-14.344 28.291-16.549 6.8437-1.8865 15.36-0.69564 21.079-5.5168 5.4523-6.336 0.74372-15.924-5.9961-19.206-7.8553-4.5971-14.53-12.058-23.887-13.007-7.7612 0.74224-14.259 11.053-22.662 7.1937-3.7455-1.5592-3.9826-7.783-8.8319-6.8816z" fill="#cb7e27"/>
  <path d="m344.03 757.19-7.4789 34.902-1.4958 49.361 5.4845 28.918 24.431 0.99718 20.941-13.961 30.414-87.254-22.935-22.935-20.941-2.9916s-19.944 1.4958-22.935 3.9888-5.4845 8.9747-5.4845 8.9747z" fill="url(#a)"/>
  <path d="m271.3 605.6c15.124 0.9646 42.431 6.5943 49.3 26.673 10.019 25.08 18.498 50.801 27.506 76.283 10.186 25.822-2.6377 52.336-12.084 76.185-4.4906 18.75-4.1349 66.918 0.55628 85.673" fill="none" stroke="#b16f12" stroke-width="1.306"/>
  <path d="m333.68 578.54c-10.31 9.6201-12.48 18.487-36.822 20.992-32.26 2.737-12.759 11.892-1.6298 12.982 12.094 5.0802 28.807 9.0148 32.221 23.768 0.24464 37.276 13.563 25.957 24.794 13.513 15.886-6.3301 32.366-19.786 50.318-13.086 11.109 7.2771 4.87 45.915 19.555 48.44 12.754 4.1139 40.417-23.265 51.425-30.586 16.11-6.0116 28.432 12.589 44.444 9.2645 13.432-1.548 25.659-7.7106 38.289-12.093 9.2308-9.607 24.776-5.536 36.831-6.8822 14.228-0.87339-6.7565-8.5363-10.933-9.3039-11.433-3.634-59.908-3.8533-28.977-32.471 6.8737-6.3595-24.569 12.334-29.101 0.94442-15.094-7.845-41.444 17.87-85.915 33.156-13.744-6.3791-21.162-12.806-14.521-29.407 11.095-22.331 65.185-17.938 41.908-25.018-9.2795-26.537-29.635-7.8225-37.663-11.02-25.006-6.0904-33.193 0.96552-49.236 5.1649-14.291 3.1152-30.111 3.4346-44.987 1.642z" fill="#b77123"/>
  <path d="m619.91 645.88c-24.61 8.9099-62.89-7.9217-85.51 15.393-26.34 23.676-55.918 47.792-87.864 63.738-29.776 20.512-36.303 57.379-47.52 89.653-2.642 10.077-4.3676 34.836-11.514 42.791" fill="none" stroke="#b16f12" stroke-width="1.306"/>
  <g transform="matrix(1 0 0 .99341 0 3.7145)" fill="none" stroke="#a05a2c" stroke-width="1.306">
   <path d="m614.35 643.75c-20.21 5.0296-49.459-0.52536-69.251 5.9004-6.5277 2.1003-12.644 5.6-18.097 11.379-18.419 17.091-36.851 34.41-57.323 48.807-7.9682 5.6156-16.292 10.789-25.077 15.333-18.301 12.956-28.515 32.913-36.306 53.906-4.6145 12.522-8.3555 25.429-12.454 37.455-2.5852 10.044-7.9486 39.996-14.908 47.957"/>
   <path d="m605.58 642.2c-15.896 6.9839-48.324 0.0919-67.305 6.9242-6.2613 2.2069-12.126 5.7715-17.349 11.547-17.637 17.169-35.306 34.567-54.943 49.128-7.6302 5.6881-15.672 10.95-24.205 15.599-17.777 13.106-27.927 32.995-35.68 53.85-4.551 12.463-8.2175 25.309-12.185 37.3-2.502 9.9955-11.01 43.165-17.695 51.133"/>
   <path d="m595.57 639.07c-15.104 8.9556-47.225 2.1242-65.26 9.4314-5.95 2.3314-11.521 5.972-16.475 11.744-16.723 17.26-33.5 34.751-52.163 49.503-7.2352 5.7728-14.948 11.137-23.186 15.911-17.165 13.282-27.241 33.092-34.949 53.786-4.4769 12.393-8.0562 25.169-11.872 37.119-2.4048 9.939-14.041 46.784-20.406 54.76"/>
   <path d="m582.89 633.96c-6.3078 9.5511-44.422 6.0275-61.409 13.861-5.6054 2.4692-10.851 6.1939-15.508 11.961-15.711 17.361-31.502 34.955-49.084 49.918-6.7979 5.8666-14.147 11.345-22.058 16.256-16.488 13.476-26.482 33.198-34.139 53.714-4.3949 12.315-7.8777 25.013-11.524 36.919-2.2972 9.8764-14.735 47.129-20.746 55.114"/>
   <path d="m564.56 630.59c-1.5335 9.3736-34.583 8.7089-52.59 16.495-5.2337 2.6179-10.128 6.4333-14.465 12.195-14.62 17.47-29.346 35.175-45.764 50.366-6.3263 5.9677-13.282 11.569-20.841 16.627-15.757 13.685-25.663 33.313-33.266 53.636-4.3064 12.232-7.6851 24.846-11.15 36.703-2.1812 9.8089-14.721 47.719-20.35 55.715"/>
   <path d="m549.5 628.98c-8.3113 8.4571-32.991 8.3235-47.647 17.326-4.8389 2.7758-9.3603 6.6876-13.356 12.444-13.461 17.586-27.056 35.408-42.237 50.842-5.8254 6.0752-12.364 11.806-19.548 17.022-14.981 13.907-24.792 33.435-32.339 53.554-4.2124 12.143-7.4805 24.668-10.752 36.473-2.058 9.7372-13.411 47.13-18.635 55.137"/>
   <path d="m554.05 602.28c-23.768 34.08-49.427 33.564-62.821 43.2-4.4237 2.9419-8.5531 6.9549-12.191 12.706-12.242 17.708-24.648 35.653-38.529 51.343-5.2986 6.1881-11.398 12.056-18.189 17.438-14.164 14.141-23.877 33.563-31.364 53.468-4.1136 12.05-7.2654 24.481-10.333 36.232-1.9284 9.6617-12.983 47.885-17.779 55.903"/>
   <path d="m535.67 608.38c-12.762 17.58-43.468 25.945-55.544 36.242-3.9903 3.1152-7.7105 7.234-10.975 12.979-10.969 17.835-22.135 35.909-34.658 51.865-4.7487 6.3061-10.39 12.317-16.77 17.871-13.312 14.385-22.922 33.697-30.346 53.378-4.0104 11.952-7.0409 24.286-9.8967 35.98-1.7931 9.583-12.392 48.333-16.744 56.363"/>
   <path d="m519.91 604.69c-8.1709 20.994-40.592 28.057-51.3 39.041-3.5404 3.2952-6.8356 7.5238-9.7119 13.263-9.6478 17.967-19.525 36.175-30.639 52.408-4.1778 6.4285-9.3429 12.588-15.297 18.321-12.428 14.639-21.931 33.836-29.289 53.284-3.9033 11.851-6.8078 24.083-9.4432 35.718-1.6526 9.5013-11.493 48.625-15.382 56.667"/>
   <path d="m497.54 607.88c-4.907 14.691-31.553 23.234-40.846 34.928-3.0751 3.4813-5.931 7.8234-8.406 13.556-8.2817 18.103-16.827 36.45-26.483 52.969-3.5874 6.5551-8.2606 12.869-13.774 18.787-11.513 14.901-20.905 33.98-28.196 53.187-3.7926 11.747-6.5667 23.873-8.9743 35.448-1.5074 9.4168-10.285 48.461-13.696 56.516"/>
   <path d="m460.74 576.75c-24.734 19.042-8.4905 52.679-16.326 65.104-2.5956 3.673-4.9988 8.1322-7.0603 13.859-6.874 18.244-14.046 36.733-22.2 53.546-2.9791 6.6856-7.1453 13.157-12.205 19.267-10.57 15.171-19.849 34.128-27.069 53.087-3.6784 11.639-6.3183 23.657-8.4911 35.169-1.3578 9.3297-8.7693 48.293-11.688 56.361"/>
   <path d="m438.72 566.87c-27.378 17.843-0.58011 60.835-6.917 74.012-2.1029 3.8701-4.0408 8.4495-5.6774 14.169-5.4272 18.388-11.188 37.024-17.799 54.14-2.3539 6.8197-5.9991 13.454-10.592 19.759-9.6016 15.448-18.763 34.28-25.912 52.985-3.5612 11.528-6.063 23.435-7.9945 34.882-1.204 9.2402-6.9465 48.27-9.3584 56.351"/>
   <path d="m409.27 564.34c-9.6013 27.297 14.393 61.59 9.5924 75.538-1.5977 4.0722-3.0586 8.7749-4.2594 14.488-3.9438 18.536-8.2583 37.323-13.286 54.749-1.7129 6.9572-4.8239 13.758-8.9376 20.265-8.6084 15.733-17.649 34.436-24.725 52.88-3.4409 11.415-5.8013 23.207-7.4853 34.589-1.0462 9.1485-4.817 47.492-6.7098 55.587"/>
   <path d="m382.62 572.41c1.7415 7.1253 26.237 51.705 23.009 66.442-1.0807 4.279-2.0534 9.1078-2.8082 14.814-2.4257 18.688-5.2597 37.628-8.6682 55.373-1.0569 7.0978-3.6212 14.07-7.245 20.782-7.5919 16.024-16.51 34.596-23.511 52.772-3.3178 11.298-5.5334 22.974-6.9643 34.288-0.88487 9.0546-2.0831 41.907-3.4446 50.016"/>
   <path d="m355.53 577.2c19.148 6.4026 38.188 45.066 36.566 60.609-0.55247 4.4902-1.0264 9.448-1.3257 15.147-0.87475 18.842-2.1962 37.94-3.95 56.009-0.38666 7.2416-2.3924 14.388-5.5158 21.31-6.5534 16.321-15.346 34.759-22.27 52.662-3.1921 11.18-5.2597 22.736-6.4319 33.981-0.71998 8.9586-0.68368 46.751-1.5023 54.874"/>
   <path d="m328.05 578.24c12.523 1.0544 50.24 42.138 50.256 58.503-0.0136 4.7058 0.0214 9.7951 0.18688 15.487 0.70757 19 0.92921 38.259 0.86362 56.659 0.29711 7.3882-1.1388 14.712-3.7515 21.85-5.4939 16.625-14.158 34.926-21.004 52.55-3.0638 11.059-4.9805 22.493-5.8888 33.668-0.55176 8.8607 0.14222 46.095-0.12266 54.234"/>
   <path d="m313.13 588.03c22.144 1.7286 49.425 30.419 51.111 47.622 0.53553 4.9254 1.089 10.149 1.7281 15.833 2.3198 19.161 4.1138 38.583 5.7684 57.321 0.99383 7.5377 0.13849 15.043-1.9539 22.399-4.4143 16.934-12.948 35.095-19.714 52.436-2.9331 10.935-4.696 22.246-5.3354 33.348-0.38036 8.761 0.51206 47.3 0.81142 55.454"/>
   <path d="m294.6 590.84c16.526-2.686 51.944 25.65 55.33 43.706 1.0944 5.149 2.1756 10.509 3.2967 16.185 3.9609 19.325 7.3552 38.913 10.761 57.995 1.703 7.6898 1.4386 15.38-0.12427 22.958-3.3155 17.249-11.716 35.268-18.401 52.319-2.8 10.81-4.4065 21.994-4.7722 33.023-0.2059 8.6595 0.88843 46.172 1.7621 54.34"/>
   <path d="m274.79 597.78c9.0936-5.7081 55.478 16.72 60.591 35.643 1.6627 5.3762 3.2805 10.875 4.8917 16.544 5.6295 19.492 10.651 39.249 15.837 58.68 2.424 7.8444 2.7605 15.722 1.7361 23.527-2.1982 17.569-10.463 35.444-17.066 52.201-2.6648 10.682-4.112 21.738-4.1995 32.693-0.0285 8.5563 1.7341 46.904 3.1918 55.088"/>
  </g>
  <path d="m529.49 571.47c-8.6007 2.7152-15.734 8.7103-24.069 11.81-10.154-0.1821-20.354 2.3754-29.078 7.7243-7.3872 5.7504-17.721 3.6228-26.254 6.567-10.039 2.3596-23.279 7.6611-23.815 19.712-0.63684 9.2599 9.6015 16.129 18.155 13.422 14.48-2.8036 25.558-13.693 38.649-19.861 12.376-5.9665 24.913-15.781 39.414-13.152 6.6134 0.79829 16.379 8.0064 23.338 4.8122 12.05-9.2844 13.43-14.619 13.075-23.948 1.1041-6.1567-11.414-5.1743-15.219-7.5737-5.126-2.6096-9.1555-1.8462-14.197 0.48622z" fill="#efb665"/>
 </g>
 <g transform="matrix(.24845 0 0 .24845 -19.244 -120.96)">
  <path d="m456.13 563.22c6.4815-2.7778 21.647-10.862 29.054-9.9358s12.396 1.9074 14.248 6.5371-1.2848 16.611-1.2848 16.611l7.3972 7.1682" fill="#dd8b14"/>
  <path d="m367.98 486.95c-6.5309 0.34211-13.047 2.4014-19.003 4.5898-7.1397 3.4545-3.719 12.525-4.31 18.639-6.5999-3.457-10.976-12.941-19.451-11.419-9.928 3.6616-19.572 8.9821-30.422 9.7673-12.5 5.2104-22.837 15.984-28.071 28.434-1.9454 3.8975-0.31096 9.5074 4.7577 9.3755 5.0614 1.3978 11 1.12 15.645 3.1065 2.0239 6.086-5.7382 8.8496-10.325 9.7446-3.0256 0.93782-10.396 1.1974-8.2579 6.1798 4.5417 7.7625 8.1346 17.734 13.797 24.782 7.055-1.4766 13.78-6.3872 21.298-5.2474 5.7591 1.1324 10.815-0.39479 14.899-4.6234 6.922-4.5893 14.413-14.116 23.611-9.5379 11.172 5.7582 24.133 0.74186 35.685-1.3611 12.962-2.4553 25.212-8.4973 38.284-9.7216 4.4658 0.18021 4.729 6.779 9.3755 7.3885 9.5323 3.0237 15.564-10.668 24.908-6.8008 3.5946 1.5297 5.7279 5.28 10.789 0.93654 9.0281-3.4652 20.058-9.8187 29.893-5.8675 10.562 2.0608 8.6361 12.559 8.6361 12.559s8.3234-28.346-2.0207-32.816c-7.9898-4.2349-14.174-10.959-19.115-18.471-5.6185-7.9207-15.701-9.6629-24.796-9.2356-6.9378 1.0593-10.604-5.5301-15.169-9.4595-8.8322-10.709-24.1-11.333-36.746-8.9557-11.316 1.6745-22.473-2.7881-33.892-1.987z" fill="#dd993f"/>
  <path d="m591.84 572.26c-9.1856 4.076-20.261 11.407-28.287 17.565-3.202 2.3408 2.4604 5.8051-0.17513 8.6025-4.4089 7.6587-14.356 13.669-13.294 23.453 2.3067 5.4784 9.9884 3.3843 14.609 3.5543 18.251-2.9588 31.731 14.488 49.66 14.226 2.367 0.65938 11.031 8.5566 9.308 4.2372-2.9927-10.351-12.81-25.372-18.163-34.444 1.3056-8.95 3.9725-18.016 4.4219-26.895-5.1709-4.3899-10.871-10.025-18.079-10.299z" fill="#f3c080"/>
  <path d="m477.22 591.05s16.39-3.267 8.78-6.0504c2.5458 2.3966-0.75068 1.9939 2.2286 1.893 5.2432-1.9762 11.111-1.9602 16.41-3.3433-2.7866-3.9438-9.9919-4.539-14.502-7.1579-7.5825-2.9413-25.92-11.129-33.663-13.504l-0.94106 2.5984 12.016 8.8451z" fill="#dd8b14"/>
  <path d="m400.1 521.89c-13.757 0.81354-25.221 12.089-39.393 10.027-11.271-0.68136-22.201-3.7123-33.147-6.2665-7.5774 0.57909-9.2922 9.3945-12.67 14.761-3.6584 7.4189-6.8387 15.077-10.882 22.303-2.0231 10.048 3.0854 19.517 4.5075 29.264 4.6225 8.2532 12.622-0.77781 17.39-3.5203 4.0656-4.3183 6.9708-11.853 14.339-8.4528 6.4598 1.114 13.349 1.7423 19.494-0.97718 7.9271-1.123 17.071 1.6724 23.864-3.8285 8.4719-1.4557 17.212-2.9186 24.724-7.3529 5.5084 5.7438 14.012 2.5496 20.902 4.0759 5.1765-3.3976 13.486 0.46104 16.84-4.5776 1.1501-6.2688-3.6152-11.675-5.6884-17.318-6.5519-13.132-17.897-25.514-33.118-27.617-2.3665-0.37408-4.7646-0.56131-7.1609-0.51984zm9.6048 42.096c-0.7535 0.0528-1.3533 0.0947 0 0zm-0.13787 0.0919c-2.567 1.8912 0.34984 3.832 0 0zm-0.82721 0c-0.80059 0.32935 0.718 0.45012 0 0zm0.91912 0.046v0.33999-0.33999zl-0.046-0.046 0.046 0.046z" fill="#d6852a"/>
  <path d="m415.24 559.39c-16.148 2.3145-31.151 9.3234-47.33 11.849-8.8192 1.5544-18.972 3.7822-26.919-1.4572-9.8133-3.2665-16.95 7.0247-24.323 11.562-5.3273 4.5898-12.376 3.3619-18.918 3.2597-10.892 1.775-22.06 6.8092-28.697 15.909-3.3328 6.8629 3.9788 13.266 9.1662 16.744 9.6872 6.2227 21.802 7.987 31.204 14.237 12.672 33.387 25.204 67.001 38.253 100.3-6.3734 20.305-14.077 40.283-16.487 61.559-3.411 21.552-0.51461 43.543 0.47791 65.205 1.0234 4.3763-0.52691 10.022 1.9392 13.738 12.13 0.5112 24.66 2.9296 36.637 0.19503 8.8621-3.4181 16.022-10.234 23.403-15.909 6.6243-34.638 19.318-67.693 33.42-99.875 3.6939-10.293 13.826-15.557 21.385-22.686 28.325-23.516 58.682-44.629 88.037-66.809 12.2-6.7822 25.264-12.66 38.894-15.351 13.965-1.623 28.516 2.731 42.126-1.5323 3.8593-0.46026 8.9905-5.8738 4.3742-8.8598-7.0403-3.8317-15.818-1.289-22.739-5.6892-11.637-5.4329-23.376-13.159-36.853-10.824-4.0596 0.13351-12.18 1.341-12.178-4.7172 0.47794-10.198 11.828-15.151 14.738-24.267 0.45906-7.22-2.5004-14.709-6.8538-20.311-3.8843-0.84964-5.062 7.2141-5.5542 9.535-0.49016 12.898 8.7823 13.822-24.842 13.367-14.707-5.3648-29.237 3.2793-41.596 10.336-14.438 6.8758-26.766 18.035-42.488 21.954-9.5975 2.5028-20.248-7.883-16.271-17.497 4.2175-11.378 17.763-14.344 28.291-16.549 6.8437-1.8865 15.36-0.69564 21.079-5.5168 5.4523-6.336 0.74372-15.924-5.9961-19.206-7.8553-4.5971-14.53-12.058-23.887-13.007-7.7612 0.74224-14.259 11.053-22.662 7.1937-3.7455-1.5592-3.9826-7.783-8.8319-6.8816z" fill="#cb7e27"/>
  <path d="m344.03 757.19-7.4789 34.902-1.4958 49.361 5.4845 28.918 24.431 0.99718 20.941-13.961 30.414-87.254-22.935-22.935-20.941-2.9916s-19.944 1.4958-22.935 3.9888-5.4845 8.9747-5.4845 8.9747z" fill="url(#a)"/>
  <path d="m271.3 605.6c15.124 0.9646 42.431 6.5943 49.3 26.673 10.019 25.08 18.498 50.801 27.506 76.283 10.186 25.822-2.6377 52.336-12.084 76.185-4.4906 18.75-4.1349 66.918 0.55628 85.673" fill="none" stroke="#b16f12"/>
  <path d="m333.68 578.54c-10.31 9.6201-12.48 18.487-36.822 20.992-32.26 2.737-12.759 11.892-1.6298 12.982 12.094 5.0802 28.807 9.0148 32.221 23.768 0.24464 37.276 13.563 25.957 24.794 13.513 15.886-6.3301 32.366-19.786 50.318-13.086 11.109 7.2771 4.87 45.915 19.555 48.44 12.754 4.1139 40.417-23.265 51.425-30.586 16.11-6.0116 28.432 12.589 44.444 9.2645 13.432-1.548 25.659-7.7106 38.289-12.093 9.2308-9.607 24.776-5.536 36.831-6.8822 14.228-0.87339-6.7565-8.5363-10.933-9.3039-11.433-3.634-59.908-3.8533-28.977-32.471 6.8737-6.3595-24.569 12.334-29.101 0.94442-15.094-7.845-41.444 17.87-85.915 33.156-13.744-6.3791-21.162-12.806-14.521-29.407 11.095-22.331 65.185-17.938 41.908-25.018-9.2795-26.537-29.635-7.8225-37.663-11.02-25.006-6.0904-33.193 0.96552-49.236 5.1649-14.291 3.1152-30.111 3.4346-44.987 1.642z" fill="#b77123"/>
  <path d="m619.91 645.88c-24.61 8.9099-62.89-7.9217-85.51 15.393-26.34 23.676-55.918 47.792-87.864 63.738-29.776 20.512-36.303 57.379-47.52 89.653-2.642 10.077-4.3676 34.836-11.514 42.791" fill="none" stroke="#b16f12"/>
  <g transform="matrix(1 0 0 .99341 0 3.7145)" fill="none" stroke="#a05a2c">
   <path d="m614.35 643.75c-20.21 5.0296-49.459-0.52536-69.251 5.9004-6.5277 2.1003-12.644 5.6-18.097 11.379-18.419 17.091-36.851 34.41-57.323 48.807-7.9682 5.6156-16.292 10.789-25.077 15.333-18.301 12.956-28.515 32.913-36.306 53.906-4.6145 12.522-8.3555 25.429-12.454 37.455-2.5852 10.044-7.9486 39.996-14.908 47.957"/>
   <path d="m605.58 642.2c-15.896 6.9839-48.324 0.0919-67.305 6.9242-6.2613 2.2069-12.126 5.7715-17.349 11.547-17.637 17.169-35.306 34.567-54.943 49.128-7.6302 5.6881-15.672 10.95-24.205 15.599-17.777 13.106-27.927 32.995-35.68 53.85-4.551 12.463-8.2175 25.309-12.185 37.3-2.502 9.9955-11.01 43.165-17.695 51.133"/>
   <path d="m595.57 639.07c-15.104 8.9556-47.225 2.1242-65.26 9.4314-5.95 2.3314-11.521 5.972-16.475 11.744-16.723 17.26-33.5 34.751-52.163 49.503-7.2352 5.7728-14.948 11.137-23.186 15.911-17.165 13.282-27.241 33.092-34.949 53.786-4.4769 12.393-8.0562 25.169-11.872 37.119-2.4048 9.939-14.041 46.784-20.406 54.76"/>
   <path d="m582.89 633.96c-6.3078 9.5511-44.422 6.0275-61.409 13.861-5.6054 2.4692-10.851 6.1939-15.508 11.961-15.711 17.361-31.502 34.955-49.084 49.918-6.7979 5.8666-14.147 11.345-22.058 16.256-16.488 13.476-26.482 33.198-34.139 53.714-4.3949 12.315-7.8777 25.013-11.524 36.919-2.2972 9.8764-14.735 47.129-20.746 55.114"/>
   <path d="m564.56 630.59c-1.5335 9.3736-34.583 8.7089-52.59 16.495-5.2337 2.6179-10.128 6.4333-14.465 12.195-14.62 17.47-29.346 35.175-45.764 50.366-6.3263 5.9677-13.282 11.569-20.841 16.627-15.757 13.685-25.663 33.313-33.266 53.636-4.3064 12.232-7.6851 24.846-11.15 36.703-2.1812 9.8089-14.721 47.719-20.35 55.715"/>
   <path d="m549.5 628.98c-8.3113 8.4571-32.991 8.3235-47.647 17.326-4.8389 2.7758-9.3603 6.6876-13.356 12.444-13.461 17.586-27.056 35.408-42.237 50.842-5.8254 6.0752-12.364 11.806-19.548 17.022-14.981 13.907-24.792 33.435-32.339 53.554-4.2124 12.143-7.4805 24.668-10.752 36.473-2.058 9.7372-13.411 47.13-18.635 55.137"/>
   <path d="m554.05 602.28c-23.768 34.08-49.427 33.564-62.821 43.2-4.4237 2.9419-8.5531 6.9549-12.191 12.706-12.242 17.708-24.648 35.653-38.529 51.343-5.2986 6.1881-11.398 12.056-18.189 17.438-14.164 14.141-23.877 33.563-31.364 53.468-4.1136 12.05-7.2654 24.481-10.333 36.232-1.9284 9.6617-12.983 47.885-17.779 55.903"/>
   <path d="m535.67 608.38c-12.762 17.58-43.468 25.945-55.544 36.242-3.9903 3.1152-7.7105 7.234-10.975 12.979-10.969 17.835-22.135 35.909-34.658 51.865-4.7487 6.3061-10.39 12.317-16.77 17.871-13.312 14.385-22.922 33.697-30.346 53.378-4.0104 11.952-7.0409 24.286-9.8967 35.98-1.7931 9.583-12.392 48.333-16.744 56.363"/>
   <path d="m519.91 604.69c-8.1709 20.994-40.592 28.057-51.3 39.041-3.5404 3.2952-6.8356 7.5238-9.7119 13.263-9.6478 17.967-19.525 36.175-30.639 52.408-4.1778 6.4285-9.3429 12.588-15.297 18.321-12.428 14.639-21.931 33.836-29.289 53.284-3.9033 11.851-6.8078 24.083-9.4432 35.718-1.6526 9.5013-11.493 48.625-15.382 56.667"/>
   <path d="m497.54 607.88c-4.907 14.691-31.553 23.234-40.846 34.928-3.0751 3.4813-5.931 7.8234-8.406 13.556-8.2817 18.103-16.827 36.45-26.483 52.969-3.5874 6.5551-8.2606 12.869-13.774 18.787-11.513 14.901-20.905 33.98-28.196 53.187-3.7926 11.747-6.5667 23.873-8.9743 35.448-1.5074 9.4168-10.285 48.461-13.696 56.516"/>
   <path d="m460.74 576.75c-24.734 19.042-8.4905 52.679-16.326 65.104-2.5956 3.673-4.9988 8.1322-7.0603 13.859-6.874 18.244-14.046 36.733-22.2 53.546-2.9791 6.6856-7.1453 13.157-12.205 19.267-10.57 15.171-19.849 34.128-27.069 53.087-3.6784 11.639-6.3183 23.657-8.4911 35.169-1.3578 9.3297-8.7693 48.293-11.688 56.361"/>
   <path d="m438.72 566.87c-27.378 17.843-0.58011 60.835-6.917 74.012-2.1029 3.8701-4.0408 8.4495-5.6774 14.169-5.4272 18.388-11.188 37.024-17.799 54.14-2.3539 6.8197-5.9991 13.454-10.592 19.759-9.6016 15.448-18.763 34.28-25.912 52.985-3.5612 11.528-6.063 23.435-7.9945 34.882-1.204 9.2402-6.9465 48.27-9.3584 56.351"/>
   <path d="m409.27 564.34c-9.6013 27.297 14.393 61.59 9.5924 75.538-1.5977 4.0722-3.0586 8.7749-4.2594 14.488-3.9438 18.536-8.2583 37.323-13.286 54.749-1.7129 6.9572-4.8239 13.758-8.9376 20.265-8.6084 15.733-17.649 34.436-24.725 52.88-3.4409 11.415-5.8013 23.207-7.4853 34.589-1.0462 9.1485-4.817 47.492-6.7098 55.587"/>
   <path d="m382.62 572.41c1.7415 7.1253 26.237 51.705 23.009 66.442-1.0807 4.279-2.0534 9.1078-2.8082 14.814-2.4257 18.688-5.2597 37.628-8.6682 55.373-1.0569 7.0978-3.6212 14.07-7.245 20.782-7.5919 16.024-16.51 34.596-23.511 52.772-3.3178 11.298-5.5334 22.974-6.9643 34.288-0.88487 9.0546-2.0831 41.907-3.4446 50.016"/>
   <path d="m355.53 577.2c19.148 6.4026 38.188 45.066 36.566 60.609-0.55247 4.4902-1.0264 9.448-1.3257 15.147-0.87475 18.842-2.1962 37.94-3.95 56.009-0.38666 7.2416-2.3924 14.388-5.5158 21.31-6.5534 16.321-15.346 34.759-22.27 52.662-3.1921 11.18-5.2597 22.736-6.4319 33.981-0.71998 8.9586-0.68368 46.751-1.5023 54.874"/>
   <path d="m328.05 578.24c12.523 1.0544 50.24 42.138 50.256 58.503-0.0136 4.7058 0.0214 9.7951 0.18688 15.487 0.70757 19 0.92921 38.259 0.86362 56.659 0.29711 7.3882-1.1388 14.712-3.7515 21.85-5.4939 16.625-14.158 34.926-21.004 52.55-3.0638 11.059-4.9805 22.493-5.8888 33.668-0.55176 8.8607 0.14222 46.095-0.12266 54.234"/>
   <path d="m313.13 588.03c22.144 1.7286 49.425 30.419 51.111 47.622 0.53553 4.9254 1.089 10.149 1.7281 15.833 2.3198 19.161 4.1138 38.583 5.7684 57.321 0.99383 7.5377 0.13849 15.043-1.9539 22.399-4.4143 16.934-12.948 35.095-19.714 52.436-2.9331 10.935-4.696 22.246-5.3354 33.348-0.38036 8.761 0.51206 47.3 0.81142 55.454"/>
   <path d="m294.6 590.84c16.526-2.686 51.944 25.65 55.33 43.706 1.0944 5.149 2.1756 10.509 3.2967 16.185 3.9609 19.325 7.3552 38.913 10.761 57.995 1.703 7.6898 1.4386 15.38-0.12427 22.958-3.3155 17.249-11.716 35.268-18.401 52.319-2.8 10.81-4.4065 21.994-4.7722 33.023-0.2059 8.6595 0.88843 46.172 1.7621 54.34"/>
   <path d="m274.79 597.78c9.0936-5.7081 55.478 16.72 60.591 35.643 1.6627 5.3762 3.2805 10.875 4.8917 16.544 5.6295 19.492 10.651 39.249 15.837 58.68 2.424 7.8444 2.7605 15.722 1.7361 23.527-2.1982 17.569-10.463 35.444-17.066 52.201-2.6648 10.682-4.112 21.738-4.1995 32.693-0.0285 8.5563 1.7341 46.904 3.1918 55.088"/>
  </g>
  <path d="m529.49 571.47c-8.6007 2.7152-15.734 8.7103-24.069 11.81-10.154-0.1821-20.354 2.3754-29.078 7.7243-7.3872 5.7504-17.721 3.6228-26.254 6.567-10.039 2.3596-23.279 7.6611-23.815 19.712-0.63684 9.2599 9.6015 16.129 18.155 13.422 14.48-2.8036 25.558-13.693 38.649-19.861 12.376-5.9665 24.913-15.781 39.414-13.152 6.6134 0.79829 16.379 8.0064 23.338 4.8122 12.05-9.2844 13.43-14.619 13.075-23.948 1.1041-6.1567-11.414-5.1743-15.219-7.5737-5.126-2.6096-9.1555-1.8462-14.197 0.48622z" fill="#efb665"/>
 </g>
 <g transform="matrix(.22862 0 0 .22862 -9.114 -66.834)">
  <path d="m191.3 429.77c-4.0488 0.84827-3.2649 9.2918-8.1464 7.7992-6.7869-1.9034-14.245 0.81701-20.486 3.4989-6.3738 3.117-10.866 8.5697-14.343 14.503-5.4039 4.5964-12.868-0.11784-18.678-1.4593-6.7574-2.4123-15.723-5.3666-21.359 0.95181-4.6621 4.7815-9.839 9.5511-13.462 15.011 3.1053 10.223 5.2061 21.844 1.1218 31.998-0.66884 6.348 1.7964 12.68 2.1084 19.06 0.58001 8.3546 5.588 15.503 12.395 20.069 6.0458 5.9019 10.142 16.499 19.845 16.8 3.1094 0.76241 4.7708-1.9062 4.3269-4.7009 2.9988-11.834 15.189-19.264 26.843-19.792 12.431 1.8786 17.217 18.431 30.155 19.204 14.127-0.71759 25.7-12.894 40.304-10.283 11.113 0.89606 25.001 6.5519 26.976 18.91 1.0673 4.2296-1.2057 7.7878-4.5673 10.123-2.3186 1.2458-2.6192 4.9635 0.66774 4.5406 5.7794 1.2823 12.745-0.63706 17.788 2.8045 1.6885 2.9128-0.61623 9.0458 4.3002 9.4284 6.6535 0.94867 14.155 0.37676 18.91 6.0096 6.6637 5.2044 7.937 15.53 11.643 22.369 5.8113-0.92977 11.668-0.41371 15.938 3.7636 4.5337 3.2589 10.879 9.7482 16.569 5.0637 4.8311-3.1163-0.35843-9.4087-0.2542-13.942-1.7549-6.0204-3.354-13.695 2.204-18.216 2.6562-3.4273 9.6934-6.9334 7.0513-12.099-5.4505-6.5481-15.564-6.1213-23.184-4.4872-6.3114 1.8065-15.232 3.0862-20.139-2.3237-2.4626-7.4178 5.2619-13.977 2.4573-21.554-2.936-8.9677-12.775-14.95-13.622-24.653 1.0076-9.2941 11.508-12.809 18.514-16.779 8.4857-4.2354 16.365-13.24 14.9-23.232-1.584-6.0498-7.6407-9.7617-13.488-10.39-9.6253-5.1815-11.485-18.76-21.635-23.184-7.9199-1.6646-16.466-0.6031-23.579-5.1675-5.2944-2.3645-10.412-6.5025-16.417-3.7622-11.756 2.2-23.595 3.9149-35.458 5.4308-8.1012-7.0741-14.696-16.518-24.546-21.234-0.54103-0.12251-1.1053-0.13682-1.656-0.0801z" fill="#dd993f"/>
  <path d="m325.64 621.59c4.7261 3.4235 6.2983 2.5893 8.9744 1.282 4.5683-8.1066-4.2982-15.107-2.7165-23.652 2.7107-7.1089 16.033-14.061 7.2562-21.841-5.4657-3.1781-9.745-1.1412-19.251-0.0381-8.7927 1.6645-19.572 2.7254-26.318 10.682-4.9206 7.6936 9.0056 9.1292 8.9211 17.76 4e-3 16.334 8.9538 11.934 16.418 11.652 2.4426 1.005 2.7616 2.8899 6.7167 4.1546z" fill="#efb665"/>
  <path d="m145.38 536.21c-5.4057-4.2159-16.88-5.266-18.105-11.663-6.4606-19.705-2.1773-42.451 23.882-38.956 17.82-3.7396 37.388-14.676 43.798-31.962 1.5706-8.1279-0.81021-25.485 7.0059-9.5721 8.4921 10.102 14.123 33.318 22.709 36.152 8.3877-18.364 28.149-24.404 45.203-13.654 17.192 3.8005 44.81 13.047 23.01 31.213-10.265 14.895-14.016 34.729-0.55791 49.037 6.7761 12.445-5.9852 23.013-10.577 33.839-4.6008 4.2984-24.011 5.8739-30.213 7.8727-12.079-11.815-13.545-27.761-30.746-31.408-11.373-8.183-21.929 3.4272-34.271 1.9564-15.602-2.1112-26.801-16.677-41.136-22.856z" fill="#d6852a"/>
  <path d="m159.3 533.24c-11.58 1.4245-27.886 10.988-28.615 23.556 1.4305 3.7345 9.4597-2.3668 11.815-2.7756 2.7118-1.4814 7.1538-4.1135 8.8942 0.13354 5.5725 8.705 5.6162 19.882 12.313 28.045 17.092 24.89 32.355 50.808 47.142 77.11 12.855 23.21 34.851 39.452 54.732 56.379 11.997 9.34 22.83 20.474 29.403 34.38 5.5345 9.5873 13.042 21.149 25.321 21.421 7.6784-0.96909 10.82-9.5831 9.0812-16.373-3.4398-16.688-18.157-27.373-25.534-42.067-9.4501-16.097-22.282-31.028-25.988-49.76-1.7385-14.242 1.9726-28.88 2.1368-42.788 12.586 3.083 23.812 11.822 37.099 11.592 5.2015-0.9799 17.844-2.8683 22.22-5.9156 0.0639-3.0703-11.348-2.0897-13.005-4.3675-4.7532-3.7212-11.39-9.0127-17.682-5.9028-1.5027 2.3487-2.1476-3.1557-2.818-3.7744-2.8352-10.266-8.7469-21.939-20.499-23.362-3.8886-0.63461-11.164 0.97079-11.485-4.8077 0.35004-3.2832-0.73309-7.5818-4.9344-7.026-5.4617-1.3244-10.986 0.60851-15.838-2.3255 2.6552-3.6698 7.6561-6.6714 6.4024-12.417-0.9485-11.705-13.548-17.82-23.825-19.578-9.0871-1.9901-18.357-0.0432-26.416 4.3803-7.4746 2.6726-17.088 8.6951-24.519 3.1784-8.3687-5.3333-14.246-17.453-25.401-16.934z" fill="#cb7e27"/>
  <path d="m141.67 548.52c4.4629-2.847 8.1362-7.6314 13.138-9.1559 10.946-2.0037 16.817 8.1641 23.447 14.504 10.464 7.2939 23.648 2.661 34.949 0.40986 11.134-4.2935 25.425-11.164 34.419 1.0304 10.359 6.7962-7.3951 25.409 7.2955 26.655 13.274-1.945 14.383 15.09 27.392 13.358 9.9418 9.8575 20.799 22.296 35.047 28.733 8.7069 2.96-13.975 3.0928-18.201-1.2505-11.927-6.4122-25.353-14.179-39.358-9.5323-10.504-0.0945-21.965 10.839-30.678 3.1615-9.8298-9.8809-20.581 8.3575-11.415 16.36 2.1757 11.842 17.546 30.783 9.383 38.919-7.7111-15.426-18.243-29.223-27.966-43.356-4.354-11.107-9.4304-22.008-17.888-30.674-9.052-8.7543-14.05-20.105-18.009-31.832-3.6301-6.9467-6.464-18.779-16.353-17.056l-5.2028-0.27383z" fill="#b77123"/>
  <path d="m140 550.82c5.4304-1.6652 10.921-1.8665 15.805 1.7067 8.8072 4.9793 10.493 16.404 14.927 24.747 6.6394 16.16 18.519 29.24 26.436 44.709 8.2031 13.777 14.62 28.952 25.14 41.145 7.7168 7.6594 11.687 18.347 19.231 26.154 13.57 8.5181 25.828 18.819 37.587 29.65 6.3579 4.4458 8.9339 12.027 13.152 18.248 5.0216 8.392 10.169 16.864 15.886 24.724l8.7606 5.8404" fill="none" stroke="#a6602a"/>
  <path d="m327.69 625.44c-6.869 4.5445-11.885 3.342-16.704 2.5119-5.879-1.411-9.7242-4.1779-15.603-5.5888-5.7035-3.2284-11.468-6.9473-18.036-8.0243-5.3786 1.0503-6.1286 5.5299-6.2402 10.922 0.69403 5.593 1.0715 13.345 0.76527 19.062 1.153 10.821-0.49992 21.591 3.6677 31.886 3.2471 5.2406 3.4958 11.261 6.8368 16.392 3.7172 4.7034 7.9563 9.0507 11.331 13.988 3.0111 5.1325 5.4624 10.636 8.8452 15.522 6.7098 8.5357 13.627 16.962 19.612 26.019 1.2583 2.6807 3.2193 5.1531 4.0378 7.9641l0.71895 9.3464" fill="none" stroke="#ab6528"/>
  <path d="m321.08 621.46c-3.773 0.32196-9.3685 2.1312-13.19 2.0626-0.57879-0.016-1.1574-0.0613-1.7346-0.14352-5.3495-1.1389-10.873-2.1213-16.356-3.1557-0.75744-0.39103-1.515-0.79296-2.274-1.1979-4.5747-2.4053-9.2256-4.8648-14.43-5.4759-4.9651 1.2744-8.7355 7.44-8.6757 12.87 0.31353 2.1261 0.81279 4.2247 1.3018 6.3252 0.81428 3.4449 1.6065 6.8928 1.5196 10.466 1.1486 8.9402 0.48819 18.287 2.6721 27.03 0.48408 1.9055 1.0905 3.7927 1.871 5.6485 3.3093 5.2919 5.3247 11.368 8.7542 16.531l0.56082 0.69602c3.6979 4.4182 7.7758 8.5854 11.098 13.274 3.144 5.1154 5.7436 10.598 9.2278 15.496 0.47676 0.59501 0.95438 1.1896 1.4325 1.784 3.7593 4.5997 7.3871 9.322 10.951 14.079 2.5618 3.4419 5.0543 6.9347 7.4162 10.515 1.2946 2.7056 3.2634 5.2101 4.1439 8.0342l0.12689 1.189 0.98779 8.0571" fill="none" stroke="#aa6428"/>
  <path d="m310.28 619.34c-3.1495 0.18733-9.4647-0.80558-12.697-0.62743-0.48991 0.0132-0.98294 2e-3 -1.4777-0.0408-4.5751-0.74101-9.5797-1.0967-14.482-1.5806-0.67287-0.28801-1.3442-0.58821-2.0139-0.89451-4.0752-1.781-8.1585-3.6496-12.741-3.8043-4.3603 1.6021-7.5906 7.7548-7.2802 13.24 0.38807 2.1412 0.94504 4.2593 1.4857 6.3832 0.91477 3.473 1.7995 6.9561 1.8639 10.557 1.4446 9.0279 1.198 18.441 3.7469 27.186 0.57369 1.8979 1.2475 3.79 2.076 5.6589 3.4002 5.3669 5.5207 11.524 9.0795 16.733 0.19029 0.23606 0.38214 0.471 0.57543 0.7049 3.8699 4.3841 8.0753 8.5597 11.563 13.238 3.3385 5.0904 6.1548 10.542 9.7872 15.458l1.4807 1.7962c3.9353 4.5892 7.4919 9.5053 11.1 14.362 2.5771 3.5244 5.0923 7.0979 7.4934 10.747 1.3477 2.742 3.3278 5.2934 4.299 8.1367 0.0595 0.39773 0.11915 0.7953 0.17898 1.1927l1.5144 7.907" fill="none" stroke="#aa6428"/>
  <path d="m301.5 610.64c-2.4209 0.03-13.416 1.9824-15.959 2.4489-0.38603 0.0473-0.77912 0.0761-1.1775 0.0792-3.6701-0.27603-8.0678 0.10074-12.292 0.26019-0.57402-0.16763-1.1447-0.34894-1.71-0.53999-3.4915-1.0514-6.9114-2.2295-10.768-1.8509-3.6536 1.9851-6.2527 8.1226-5.6494 13.672 0.47518 2.1588 1.0996 4.2997 1.7007 6.451 1.0322 3.5057 2.025 7.0301 2.2663 10.663 1.7906 9.1304 2.0274 18.621 5.0031 27.369 0.67841 1.889 1.431 3.7868 2.3157 5.6711 3.5065 5.4546 5.7498 11.707 9.4597 16.97 0.19576 0.2397 0.39328 0.4781 0.5925 0.71525 4.0709 4.3443 8.4253 8.5297 12.106 13.197 3.5658 5.0611 6.6353 10.476 10.441 15.413l1.5371 1.8104c4.1411 4.5771 7.6143 9.7195 11.275 14.692 2.595 3.6208 5.1367 7.2886 7.5838 11.017 1.4098 2.7845 3.403 5.3907 4.4802 8.2564l0.23985 1.197 2.1298 7.7314" fill="none" stroke="#aa6428"/>
  <path d="m289.85 598.63c-13.818-2.178-15.854 7.4542-17.634 8.2398-0.27105 0.085-0.5535 0.15803-0.84519 0.21199-2.6683 0.23868-6.3942 1.4262-9.8674 2.2979-0.46461-0.0344-0.92372-0.0841-1.3736-0.14753-2.8454-0.24381-5.5309-0.65745-8.5832 0.31153-2.8713 2.409-4.7716 8.5298-3.8441 14.151 0.57161 2.1782 1.2707 4.3444 1.9386 6.526 1.1622 3.542 2.2747 7.112 2.7117 10.781 2.1735 9.2439 2.9456 18.82 6.3936 27.571 0.79432 1.8792 1.6341 3.7833 2.581 5.6846 3.6242 5.5516 6.0033 11.909 9.8805 17.233 0.20181 0.24374 0.40562 0.48598 0.61139 0.72673 4.2934 4.3002 8.8127 8.4965 12.707 13.151 3.8173 5.0288 7.1672 10.404 11.165 15.364l1.5995 1.8262c4.3688 4.5636 7.7499 9.9566 11.467 15.057 2.6149 3.7275 5.1858 7.4998 7.6837 11.317 1.4784 2.8316 3.4862 5.4984 4.6808 8.389l0.30723 1.2017 2.811 7.5372" fill="none" stroke="#a96328"/>
  <path d="m260.35 587.48c-0.74426-0.33201-5.9609 1.0387-5.2229 3.8635-0.14702 0.1257-4.3779 4.3142-4.5545 4.4231-1.5878 0.79386-0.52127 2.1779-3.1848 3.8178-0.3466 0.10938-7e-3 2.9135-0.33283 2.9876-2.1485 0.62729-2.008 3.75-4.193 5.3558-2.0274 2.8663-3.1741 8.9691-1.8969 14.667 0.67562 2.1993 1.4552 4.3926 2.1953 6.6069 1.3024 3.5811 2.544 7.2003 3.1922 10.908 2.5865 9.3662 3.9359 19.035 7.8934 27.789 0.91936 1.8686 1.8532 3.7795 2.8672 5.6991 3.7511 5.6562 6.2768 12.128 10.334 17.516 0.20834 0.24809 0.41893 0.49447 0.63178 0.73911 4.5334 4.2526 9.2305 8.4607 13.355 13.102 4.0886 4.9939 7.7409 10.325 11.945 15.311l1.6668 1.8431c4.6145 4.549 7.8961 10.212 11.675 15.451 2.6363 3.8426 5.2389 7.7275 7.7915 11.64 1.5525 2.8824 3.5761 5.6146 4.8972 8.5319 0.12608 0.40283 0.25271 0.80509 0.3799 1.2067l3.5458 7.3276" fill="none" stroke="#a96328"/>
  <path d="m238.61 551.51c13.739 13.706 4.0418 40.027 3.9591 41.523-0.0153 0.16894-0.0516 0.34031-0.10598 0.50746-0.43998 1.3836-2.6716 4.3745-4.4752 6.8304-0.22123 0.26207-0.43228 0.5051-0.62537 0.72542-1.4082 1.5526-2.4603 2.8393-3.7241 5.1214-1.1311 3.352-1.4772 9.4356 0.17139 15.215 0.7861 2.2216 1.6512 4.4438 2.468 6.6928 1.4514 3.6227 2.83 7.2942 3.7025 11.043 3.0252 9.4962 4.9879 19.263 9.4865 28.02 1.0522 1.8573 2.0859 3.7755 3.1711 5.7145 3.886 5.7674 6.5673 12.359 10.817 17.817l0.65342 0.75225c4.7883 4.202 9.6744 8.4226 14.044 13.05 4.3769 4.9568 8.3503 10.242 12.774 15.254l1.7382 1.8612c4.8754 4.5336 8.0514 10.484 11.896 15.87 2.659 3.9649 5.2952 7.9694 7.9061 11.984 1.6312 2.9364 3.6715 5.738 5.1271 8.6838l0.4571 1.2122 4.3262 7.105" fill="none" stroke="#a86228"/>
  <path d="m212.55 552.11c16.067 2.3095 13.124 31.541 13.96 33.421 0.12324 0.21439-0.1188 4.5068-0.0446 4.7353 0.76686 2.0036-0.31648 1.9035-1.2157 5.2174-0.0894 0.42262-0.16613 0.82419-0.22012 1.1982-0.62982 2.5255-0.79721 4.7332-1.0924 7.7265-0.18863 3.8628 0.30701 9.9262 2.3462 15.792 0.90228 2.245 1.8574 4.4977 2.7546 6.7832 1.608 3.6664 3.1308 7.3928 4.2391 11.185 3.4865 9.6329 6.094 19.502 11.162 28.264 1.1918 1.8455 2.3306 3.7713 3.4907 5.7307 4.0277 5.8842 6.8728 12.603 11.324 18.133 0.22256 0.25757 0.44792 0.51296 0.67618 0.76607 5.0564 4.1489 10.141 8.3826 14.768 12.995 4.6799 4.9178 8.9911 10.155 13.646 15.195l1.8134 1.8801c5.1498 4.5173 8.2148 10.77 12.129 16.31 2.6829 4.0934 5.3544 8.2238 8.0265 12.345 1.7139 2.9932 3.7718 5.8678 5.3688 8.8435 0.17858 0.40685 0.35799 0.81281 0.53828 1.2178l5.1469 6.871" fill="none" stroke="#a86229"/>
  <path d="m196.51 556.8c10.383-1.9184 12.09 9.9435 12.017 18.185 1.9997 7.2608 3.9261 16.357 4.7528 24.84 1.9044 15.633 10.438 29.115 15.542 43.743 3.9466 11.708 10.209 22.327 17.155 32.467 4.1106 7.2408 8.2185 14.842 15.561 19.293 11.265 8.8252 20.532 19.846 30.482 30.025 8.1969 11.916 15.497 24.539 23.612 36.446l4.684 5.1702" fill="none" stroke="#a76129"/>
  <path d="m176.32 551.69c14.406 4.236 13.233 15.202 16.026 17.901 0.418 0.31111 0.79856 0.6491 1.1462 1.008 3.3348 3.323 3.6346 9.369 4.6595 14.509 0.19105 0.76422 0.40022 1.5032 0.64218 2.2042 1.0264 4.5957 2.7415 8.7629 4.5074 13.27 1.8168 4.9495 4.1035 10.97 6.9738 17.018 1.1495 2.295 2.2959 4.6123 3.3646 6.9755 1.9412 3.7594 3.7707 7.6028 5.3808 11.486 4.4681 9.9237 8.4477 20.013 14.726 28.782 1.489 1.8202 2.8513 3.7623 4.1708 5.7652 4.3293 6.1329 7.5227 13.122 12.403 18.805 0.23808 0.26792 0.47955 0.53314 0.72462 0.79548 5.6267 4.0358 11.134 8.2974 16.309 12.878 5.3248 4.8348 10.355 9.9689 15.501 15.068l1.9733 1.9205c5.7335 4.4827 8.5623 11.377 12.623 17.246 2.7338 4.367 5.4804 8.765 8.2828 13.113 1.8899 3.1139 3.9853 6.1439 5.883 9.1832l0.711 1.2299 6.8931 6.373" fill="none" stroke="#a76129"/>
  <path d="m150.35 544.26c17.529-3.1178 20.179 13.792 24.002 16.922 0.57324 0.36204 1.1032 0.75973 1.5949 1.1873 4.6874 4.0179 5.8941 11.159 7.9325 17.26 0.33877 0.94414 0.6985 1.8608 1.0964 2.7341 1.8988 5.6861 4.6053 10.885 7.4567 16.189 2.873 5.5219 6.1031 11.52 9.4111 17.664 1.2796 2.3213 2.5269 4.6727 3.6859 7.0768 2.1168 3.8084 4.1078 7.7134 5.9822 11.645 4.9851 10.077 9.6873 20.281 16.603 29.055 1.6455 1.807 3.1255 3.7575 4.529 5.7834 4.4882 6.2639 7.865 13.395 12.971 19.16l0.75013 0.81097c5.9271 3.9762 11.657 8.2526 17.121 12.816 5.6644 4.7912 11.073 9.871 16.478 15.002 0.68746 0.64542 1.3732 1.2927 2.0575 1.9417 6.041 4.4645 8.7453 11.697 12.883 17.739 2.7606 4.5111 5.5468 9.0501 8.4177 13.517 1.9826 3.1775 4.0978 6.2893 6.1539 9.3622 0.26598 0.41353 0.53329 0.82565 0.80198 1.2363l7.8128 6.1107" fill="none" stroke="#a66029"/>
 </g>
</svg>
